<?xml version="1.0" standalone="no"?>
<!DOCTYPE svg PUBLIC "-//W3C//DTD SVG 20010904//EN"
 "http://www.w3.org/TR/2001/REC-SVG-20010904/DTD/svg10.dtd">
<svg version="1.0" xmlns="http://www.w3.org/2000/svg"
 width="600.000000pt" height="600.000000pt" viewBox="0 0 600.000000 600.000000"
 preserveAspectRatio="xMidYMid meet">
<metadata>
Created by potrace 1.14, written by Peter Selinger 2001-2017
</metadata>
<g transform="translate(0.000000,600.000000) scale(0.100000,-0.100000)"
fill="#000000" stroke="none">
<path d="M2985 5701 c-10 -10 -186 -111 -240 -139 -16 -8 -49 -28 -72 -44 -23
-15 -44 -28 -48 -28 -3 0 -43 -22 -89 -50 -45 -27 -105 -62 -132 -77 -81 -45
-200 -114 -288 -167 -44 -27 -103 -61 -131 -76 -60 -32 -103 -57 -171 -98 -28
-18 -54 -32 -58 -32 -3 0 -37 -20 -76 -45 -39 -25 -72 -45 -75 -45 -5 0 -82
-44 -285 -163 -47 -27 -105 -61 -130 -74 -25 -14 -50 -30 -57 -35 -6 -5 -35
-21 -65 -37 -29 -15 -90 -50 -135 -77 -45 -27 -125 -74 -177 -104 l-96 -55 0
-1356 0 -1356 27 -14 c16 -7 58 -33 96 -56 37 -24 71 -43 75 -43 4 0 48 -25
98 -56 49 -31 109 -66 134 -78 25 -12 76 -41 114 -64 37 -23 70 -42 72 -42 2
0 47 -26 101 -59 115 -69 281 -165 338 -196 42 -23 234 -135 370 -215 44 -26
105 -60 135 -76 30 -16 85 -48 123 -71 37 -24 70 -43 73 -43 4 0 30 -14 58
-32 63 -38 105 -63 177 -102 30 -17 89 -51 130 -75 41 -24 107 -63 146 -87
l73 -42 57 37 c32 20 76 45 98 55 21 11 63 34 92 53 29 18 81 48 116 66 34 18
98 55 142 82 138 84 194 116 273 158 42 22 102 57 132 77 30 19 67 41 82 48
24 10 177 99 360 208 31 19 58 34 61 34 3 0 42 23 87 50 45 28 83 50 86 50 2
0 34 18 70 40 36 22 68 40 70 40 2 0 36 21 76 47 40 25 93 55 117 66 24 10 76
40 116 66 40 25 106 64 146 86 40 22 92 51 116 64 l43 25 0 1355 0 1356 -88
51 c-48 29 -112 65 -142 81 -63 34 -82 45 -240 138 -63 38 -133 78 -156 91
-22 12 -60 34 -84 49 -55 34 -229 135 -234 135 -4 0 -71 39 -277 161 -63 38
-118 69 -122 69 -4 0 -33 17 -64 37 -63 40 -149 90 -228 133 -27 14 -69 38
-92 53 -24 15 -45 27 -47 27 -3 0 -41 23 -86 50 -45 28 -85 50 -88 50 -4 0
-23 11 -42 23 -19 13 -55 35 -80 49 -107 59 -246 141 -254 149 -13 11 -20 11
-31 0z m80 -331 c36 -22 68 -40 70 -40 3 0 34 -18 69 -40 35 -22 66 -40 69
-40 3 0 42 -22 87 -50 45 -27 83 -50 86 -50 2 0 23 -12 47 -27 23 -15 65 -39
92 -53 28 -15 77 -43 110 -62 33 -19 71 -41 85 -49 14 -8 32 -19 40 -26 8 -6
40 -24 70 -40 69 -37 132 -73 145 -83 6 -5 53 -32 105 -62 52 -30 104 -59 115
-66 11 -6 63 -36 116 -66 53 -29 115 -66 139 -81 24 -15 62 -37 84 -49 23 -13
93 -53 156 -91 164 -97 177 -104 255 -146 l70 -37 3 -1211 2 -1211 -62 -31
c-35 -18 -88 -48 -118 -69 -30 -20 -75 -46 -100 -57 -25 -11 -78 -41 -118 -66
-40 -26 -74 -47 -76 -47 -2 0 -34 -18 -70 -40 -36 -22 -68 -40 -70 -40 -3 0
-41 -22 -86 -50 -45 -27 -84 -50 -87 -50 -3 0 -30 -15 -61 -34 -183 -109 -336
-198 -360 -208 -15 -7 -52 -28 -82 -48 -30 -20 -95 -58 -145 -84 -49 -27 -108
-61 -132 -77 -23 -16 -45 -29 -50 -29 -5 0 -56 -29 -113 -65 -58 -36 -114 -68
-124 -71 -11 -4 -49 -25 -85 -48 -75 -48 -129 -76 -146 -76 -6 0 -50 23 -96
51 -46 28 -106 63 -134 78 -62 34 -105 59 -171 99 -28 18 -54 32 -58 32 -3 0
-36 19 -73 43 -38 23 -93 55 -123 71 -30 16 -91 50 -135 76 -107 63 -320 187
-372 216 -24 13 -62 35 -85 48 -24 13 -112 64 -196 115 -84 50 -155 91 -157
91 -2 0 -40 23 -85 50 -45 27 -85 50 -89 50 -4 0 -46 23 -92 52 -46 28 -111
65 -144 83 l-60 32 -3 1211 -2 1212 51 25 c28 15 82 46 121 71 39 25 81 50 95
55 13 5 43 22 66 37 23 16 56 36 72 44 17 8 68 38 115 65 182 107 280 163 285
163 3 0 36 20 75 45 39 25 73 45 76 45 4 0 30 14 58 32 71 44 112 67 176 101
30 16 62 34 70 40 17 14 36 24 145 85 44 24 112 64 151 88 39 24 73 44 77 44
3 0 46 25 95 55 50 30 93 55 96 55 4 0 30 16 59 35 28 19 55 35 58 35 4 0 36
18 70 39 35 22 65 40 66 40 2 1 32 -17 68 -39z"/>
<path d="M2650 4455 c0 -37 18 -47 40 -20 14 16 7 30 -21 45 -17 10 -19 7 -19
-25z"/>
<path d="M3360 4455 c0 -37 18 -47 39 -21 9 11 10 20 1 35 -18 34 -40 26 -40
-14z"/>
<path d="M2836 4432 c-10 -12 -21 -37 -26 -56 -7 -32 -5 -39 17 -56 35 -28 89
-26 107 3 27 43 28 64 4 91 -32 36 -78 44 -102 18z"/>
<path d="M3014 4376 c-42 -42 -43 -67 -3 -117 l31 -39 -71 0 c-43 0 -71 4 -71
11 0 5 -17 17 -37 26 -46 19 -106 12 -144 -16 -16 -12 -30 -21 -33 -21 -2 0
-7 18 -11 40 -10 57 -27 70 -91 70 -73 0 -94 -21 -94 -93 0 -32 6 -61 16 -75
15 -22 14 -23 -20 -37 -19 -8 -42 -15 -50 -15 -8 0 -16 -6 -19 -12 -2 -7 -16
11 -31 40 l-26 52 -55 0 c-70 0 -100 -25 -92 -76 8 -49 -5 -85 -56 -147 l-44
-54 -29 49 c-27 47 -31 49 -63 44 -68 -11 -92 -67 -50 -120 24 -30 56 -33 101
-10 30 15 32 15 45 -2 22 -31 15 -51 -35 -92 l-48 -41 -27 35 c-35 43 -81 47
-116 10 -19 -20 -22 -32 -17 -59 9 -49 37 -71 80 -63 19 4 40 14 47 22 12 14
15 12 25 -17 18 -48 18 -129 1 -129 -27 0 -38 -49 -31 -140 l7 -87 -37 -28
c-20 -15 -36 -35 -36 -44 0 -9 14 -33 31 -54 34 -41 77 -49 117 -21 21 14 22
14 22 -6 0 -44 51 -100 91 -100 5 0 40 -26 79 -57 61 -50 68 -59 56 -72 -35
-41 -29 -84 15 -106 48 -25 87 -19 107 15 19 34 29 36 60 14 15 -10 22 -25 22
-48 0 -49 33 -80 79 -72 20 3 43 13 51 23 19 22 38 27 54 13 7 -5 15 -7 18 -5
3 3 8 -9 12 -26 8 -42 33 -69 63 -69 27 0 83 26 83 39 0 4 25 3 55 -2 l55 -10
0 -44 c0 -42 1 -43 33 -43 37 0 57 15 57 42 0 15 5 17 28 12 15 -4 29 -10 32
-14 3 -3 13 -9 23 -13 9 -4 17 -17 17 -30 0 -34 36 -64 59 -50 21 13 24 -2 10
-59 -10 -37 -54 -82 -71 -72 -5 3 -14 1 -21 -4 -17 -14 -131 -34 -197 -35 -80
-2 -213 12 -224 23 -5 5 -22 6 -37 3 -16 -3 -35 0 -42 6 -8 6 -16 8 -20 5 -6
-6 -113 30 -157 53 -14 7 -31 13 -37 13 -7 0 -13 5 -13 10 0 6 -11 10 -24 10
-13 0 -62 20 -109 45 -48 25 -88 45 -90 45 -1 0 -3 -10 -4 -21 -1 -12 -10 -31
-21 -43 -10 -11 -19 -32 -20 -45 0 -13 -5 -27 -9 -30 -5 -3 -15 -25 -21 -48
-7 -24 -17 -43 -22 -43 -6 0 -10 -11 -10 -24 0 -14 -7 -32 -16 -40 -8 -9 -17
-27 -18 -40 -1 -13 -10 -36 -19 -50 -9 -14 -17 -33 -17 -42 0 -9 -9 -29 -21
-45 -32 -45 -19 -118 27 -159 35 -31 81 -39 101 -19 18 18 59 0 74 -34 8 -17
29 -42 47 -54 38 -25 38 -25 -53 -37 -51 -7 -65 -27 -65 -93 0 -76 22 -97 100
-91 32 2 65 10 74 17 21 18 22 118 1 148 -14 20 -13 23 12 41 24 16 34 17 70
8 23 -6 49 -20 57 -31 12 -17 26 -20 85 -20 39 0 71 -4 71 -8 0 -5 5 -5 11 -1
6 3 23 -6 38 -20 16 -16 60 -36 104 -50 47 -15 91 -36 112 -55 40 -34 68 -38
122 -16 19 8 37 15 39 15 2 0 15 -21 30 -46 15 -25 38 -50 53 -56 42 -16 106
-1 138 32 l29 30 29 -55 c36 -66 60 -71 123 -25 50 36 53 59 17 112 -14 20
-25 39 -25 42 0 2 17 10 38 16 20 7 47 22 60 33 20 18 24 19 32 7 5 -8 10 -24
10 -36 0 -51 103 -84 155 -50 24 16 26 22 24 83 l-2 66 48 25 49 24 21 -26
c17 -22 29 -26 71 -26 61 0 83 14 90 60 7 48 -3 58 -76 84 -41 14 -70 31 -84
49 l-20 27 36 36 36 36 13 -35 c23 -65 92 -76 145 -23 26 26 34 42 34 70 0 45
-26 63 -111 77 -35 6 -65 11 -66 12 -1 2 4 14 10 27 17 33 66 39 92 10 25 -27
45 -25 93 10 33 23 42 37 42 59 0 50 -11 62 -87 96 -94 44 -104 64 -56 120 27
32 33 47 31 75 -3 30 -10 40 -50 65 -26 17 -48 37 -48 45 0 13 -12 47 -68 182
-9 21 -32 48 -51 62 -20 13 -57 43 -82 67 -72 68 -160 132 -199 144 -11 3 -20
11 -20 17 0 6 -3 8 -7 5 -3 -4 -12 -2 -19 3 -6 6 -18 9 -25 8 -9 -2 -13 5 -11
21 2 24 -12 41 -35 41 -7 0 -13 -9 -13 -20 0 -11 -4 -20 -10 -20 -5 0 -10 5
-10 11 0 6 -9 8 -20 4 -11 -3 -20 -2 -20 2 0 8 -77 30 -117 35 -7 1 -13 5 -13
9 0 4 -8 8 -17 8 -38 1 -93 14 -93 21 0 4 -11 6 -25 5 -14 -2 -25 1 -25 7 0 5
-6 8 -12 5 -7 -2 -22 0 -33 6 -11 6 -30 10 -42 8 -13 -1 -23 3 -23 9 0 6 -5 8
-10 5 -6 -4 -17 -1 -25 5 -8 7 -15 10 -15 6 0 -9 -103 34 -123 52 -10 9 -15
22 -13 29 3 7 1 15 -4 18 -6 4 -10 20 -10 36 0 35 43 84 65 75 8 -3 15 -1 15
5 0 6 10 9 23 8 12 -1 30 1 40 6 10 4 59 4 110 1 51 -4 109 -6 130 -6 21 0 43
-3 50 -7 7 -4 23 -8 37 -9 14 -1 27 -3 30 -4 3 -2 10 -4 15 -5 67 -11 95 -18
95 -23 0 -4 10 -8 23 -9 12 0 36 -7 52 -14 17 -7 34 -11 39 -10 4 1 14 -4 22
-10 8 -7 17 -9 20 -6 3 3 31 -8 61 -24 43 -23 58 -27 69 -18 8 6 14 18 14 25
0 8 5 14 10 14 6 0 10 13 10 28 0 16 9 38 20 50 11 12 20 31 20 44 0 13 9 34
20 48 11 14 20 34 20 45 1 39 15 50 49 35 44 -18 76 -6 95 35 22 45 13 71 -29
93 l-33 17 14 40 c17 50 17 55 1 55 -7 0 -19 6 -25 13 -7 6 -18 12 -25 12 -8
0 -11 20 -9 66 5 88 -15 109 -98 109 -62 0 -90 -18 -90 -58 0 -24 -15 -37 -25
-22 -4 6 -8 36 -8 67 -3 83 -45 109 -136 83 -40 -11 -51 -24 -51 -63 0 -18 -4
-27 -12 -25 -8 3 -15 30 -18 67 -6 78 -21 91 -101 91 -48 0 -60 -4 -73 -22 -9
-12 -16 -37 -16 -55 0 -39 -4 -42 -53 -36 l-37 5 30 34 c46 53 38 109 -20 139
-44 23 -69 18 -106 -19z m361 -2612 l24 -41 -43 -32 c-25 -17 -47 -31 -50 -31
-3 0 -19 27 -36 60 -17 33 -37 60 -45 60 -7 0 -17 5 -20 10 -4 7 6 9 29 7 20
-3 39 0 42 5 3 5 21 8 40 6 28 -2 39 -10 59 -44z m-255 6 c-20 -13 -40 -13
-40 0 0 6 12 10 28 10 21 0 24 -2 12 -10z"/>
<path d="M3540 4370 c0 -27 3 -30 30 -30 27 0 30 3 30 30 0 27 -3 30 -30 30
-27 0 -30 -3 -30 -30z"/>
<path d="M2368 4343 c-14 -3 -18 -15 -18 -54 0 -49 0 -49 33 -49 42 0 57 15
57 57 0 22 -6 36 -19 43 -20 10 -25 11 -53 3z"/>
<path d="M3780 4315 c0 -40 22 -48 40 -14 13 23 14 22 -17 38 -22 11 -23 10
-23 -24z"/>
<path d="M2050 4155 c0 -33 2 -35 35 -35 33 0 35 2 35 35 0 33 -2 35 -35 35
-33 0 -35 -2 -35 -35z"/>
<path d="M3920 4034 l0 -55 38 3 c35 3 37 5 40 41 4 47 -11 67 -49 67 -28 0
-29 -1 -29 -56z"/>
<path d="M1852 3573 c-7 -3 -20 -19 -28 -35 -16 -30 -15 -31 13 -54 54 -46 59
-47 92 -9 36 42 38 58 11 85 -19 19 -59 25 -88 13z"/>
<path d="M1800 3300 c0 -46 11 -51 30 -15 11 20 11 27 0 40 -21 25 -30 17 -30
-25z"/>
<path d="M3660 3185 c0 -29 3 -36 18 -33 25 5 27 44 3 58 -19 10 -21 8 -21
-25z"/>
<path d="M1956 3053 c-12 -13 -6 -63 8 -63 19 0 48 29 41 41 -9 14 -42 29 -49
22z"/>
<path d="M2140 2945 c0 -54 1 -55 28 -55 36 0 52 17 52 55 0 38 -16 55 -52 55
-27 0 -28 -1 -28 -55z"/>
<path d="M3994 2867 c-3 -8 -4 -32 -2 -53 3 -38 4 -39 43 -39 l40 0 0 50 0 50
-38 3 c-25 2 -39 -1 -43 -11z"/>
<path d="M4134 2587 c-3 -8 -4 -32 -2 -53 3 -35 6 -39 34 -42 40 -4 56 16 52
65 -3 36 -5 38 -41 41 -25 2 -39 -1 -43 -11z"/>
<path d="M1870 2090 c0 -23 5 -30 19 -30 11 0 21 9 24 22 8 27 1 38 -24 38
-14 0 -19 -7 -19 -30z"/>
<path d="M2000 1810 l0 -71 58 3 57 3 0 65 0 65 -57 3 -58 3 0 -71z"/>
<path d="M2392 1754 c-19 -13 -22 -24 -22 -84 0 -83 8 -90 98 -90 72 0 84 11
90 83 3 42 0 57 -18 80 -18 23 -29 27 -74 27 -30 0 -61 -6 -74 -16z"/>
<path d="M3852 1728 c-34 -34 15 -101 58 -78 28 15 39 41 29 68 -6 17 -16 22
-42 22 -18 0 -38 -5 -45 -12z"/>
<path d="M2623 1666 c-35 -30 -47 -72 -32 -116 l11 -30 79 0 78 0 10 37 c12
43 0 76 -39 104 -44 32 -74 33 -107 5z"/>
<path d="M2850 1535 l0 -76 58 3 57 3 3 58 c4 74 -7 87 -69 87 l-49 0 0 -75z"/>
<path d="M2170 1535 c0 -40 22 -48 40 -14 9 15 8 24 -1 35 -21 26 -39 16 -39
-21z"/>
<path d="M3580 1535 c0 -33 2 -35 35 -35 33 0 35 2 35 35 0 33 -2 35 -35 35
-33 0 -35 -2 -35 -35z"/>
<path d="M3090 1455 c0 -54 1 -55 28 -55 36 0 52 17 52 55 0 38 -16 55 -52 55
-27 0 -28 -1 -28 -55z"/>
<path d="M2390 1454 c0 -39 12 -44 34 -12 17 25 14 33 -14 41 -17 4 -20 0 -20
-29z"/>
<path d="M2610 1395 c0 -37 22 -50 34 -19 10 25 7 33 -14 44 -18 10 -20 8 -20
-25z"/>
<path d="M3300 1395 c0 -41 22 -48 41 -13 10 18 8 24 -7 35 -28 20 -34 16 -34
-22z"/>
</g>
</svg>
